<svg width="416" height="94" viewBox="0 0 416 94" fill="none" xmlns="http://www.w3.org/2000/svg">
<path d="M0 8C0 3.58172 3.58172 0 8 0H408C412.418 0 416 3.58172 416 8V94H0V8Z" fill="white"/>
<path d="M32.988 42.36C31.26 42.36 29.78 41.984 28.548 41.232C27.316 40.472 26.368 39.416 25.704 38.064C25.048 36.712 24.72 35.144 24.72 33.36C24.72 31.576 25.048 30.008 25.704 28.656C26.368 27.304 27.316 26.252 28.548 25.5C29.78 24.74 31.26 24.36 32.988 24.36C34.716 24.36 36.196 24.74 37.428 25.5C38.668 26.252 39.616 27.304 40.272 28.656C40.936 30.008 41.268 31.576 41.268 33.36C41.268 35.144 40.936 36.712 40.272 38.064C39.616 39.416 38.668 40.472 37.428 41.232C36.196 41.984 34.716 42.36 32.988 42.36ZM32.988 39.636C34.148 39.644 35.112 39.388 35.88 38.868C36.656 38.348 37.236 37.616 37.62 36.672C38.012 35.728 38.208 34.624 38.208 33.36C38.208 32.096 38.012 31 37.62 30.072C37.236 29.136 36.656 28.408 35.88 27.888C35.112 27.368 34.148 27.1 32.988 27.084C31.828 27.076 30.864 27.332 30.096 27.852C29.328 28.372 28.748 29.104 28.356 30.048C27.972 30.992 27.78 32.096 27.78 33.36C27.78 34.624 27.972 35.724 28.356 36.66C28.74 37.588 29.316 38.312 30.084 38.832C30.86 39.352 31.828 39.62 32.988 39.636ZM46.2826 30.864L46.1146 29.616C45.7466 29.648 45.4546 29.588 45.2386 29.436C45.0226 29.276 44.8746 29.056 44.7946 28.776C44.7226 28.488 44.7066 28.164 44.7466 27.804H46.2826V24.72H43.3186V27.924C43.3186 28.972 43.5666 29.764 44.0626 30.3C44.5586 30.836 45.2986 31.024 46.2826 30.864ZM48.3369 42V41.604L55.2009 31.572H49.0329V29.04H59.7009V29.448L52.8609 39.468H59.4129V42H48.3369ZM66.1984 42V24.72H71.7064C71.8504 24.72 72.1344 24.724 72.5584 24.732C72.9904 24.74 73.4064 24.768 73.8064 24.816C75.1744 24.992 76.3304 25.48 77.2744 26.28C78.2264 27.072 78.9464 28.084 79.4344 29.316C79.9224 30.548 80.1664 31.896 80.1664 33.36C80.1664 34.824 79.9224 36.172 79.4344 37.404C78.9464 38.636 78.2264 39.652 77.2744 40.452C76.3304 41.244 75.1744 41.728 73.8064 41.904C73.4144 41.952 73.0024 41.98 72.5704 41.988C72.1384 41.996 71.8504 42 71.7064 42H66.1984ZM69.1384 39.276H71.7064C71.9464 39.276 72.2504 39.268 72.6184 39.252C72.9944 39.236 73.3264 39.2 73.6144 39.144C74.4304 38.992 75.0944 38.628 75.6064 38.052C76.1184 37.476 76.4944 36.776 76.7344 35.952C76.9824 35.128 77.1064 34.264 77.1064 33.36C77.1064 32.424 76.9824 31.544 76.7344 30.72C76.4864 29.896 76.1024 29.204 75.5824 28.644C75.0704 28.084 74.4144 27.728 73.6144 27.576C73.3264 27.512 72.9944 27.476 72.6184 27.468C72.2504 27.452 71.9464 27.444 71.7064 27.444H69.1384V39.276ZM88.9291 42.36C87.6651 42.36 86.5251 42.14 85.5091 41.7C84.5011 41.26 83.6691 40.632 83.0131 39.816C82.3651 38.992 81.9531 38.016 81.7771 36.888L84.7771 36.432C85.0331 37.456 85.5571 38.248 86.3491 38.808C87.1491 39.368 88.0691 39.648 89.1091 39.648C89.7251 39.648 90.3051 39.552 90.8491 39.36C91.3931 39.168 91.8331 38.888 92.1691 38.52C92.5131 38.152 92.6851 37.7 92.6851 37.164C92.6851 36.924 92.6451 36.704 92.5651 36.504C92.4851 36.296 92.3651 36.112 92.2051 35.952C92.0531 35.792 91.8531 35.648 91.6051 35.52C91.3651 35.384 91.0851 35.268 90.7651 35.172L86.3011 33.852C85.9171 33.74 85.5011 33.592 85.0531 33.408C84.6131 33.216 84.1931 32.956 83.7931 32.628C83.4011 32.292 83.0771 31.868 82.8211 31.356C82.5731 30.836 82.4491 30.196 82.4491 29.436C82.4491 28.324 82.7291 27.392 83.2891 26.64C83.8571 25.88 84.6171 25.312 85.5691 24.936C86.5291 24.56 87.5931 24.376 88.7611 24.384C89.9451 24.392 91.0011 24.596 91.9291 24.996C92.8571 25.388 93.6331 25.96 94.2571 26.712C94.8811 27.464 95.3211 28.372 95.5771 29.436L92.4691 29.976C92.3411 29.368 92.0931 28.852 91.7251 28.428C91.3651 27.996 90.9211 27.668 90.3931 27.444C89.8731 27.22 89.3171 27.1 88.7251 27.084C88.1491 27.076 87.6131 27.164 87.1171 27.348C86.6291 27.524 86.2331 27.78 85.9291 28.116C85.6331 28.452 85.4851 28.844 85.4851 29.292C85.4851 29.716 85.6131 30.064 85.8691 30.336C86.1251 30.6 86.4411 30.812 86.8171 30.972C87.2011 31.124 87.5891 31.252 87.9811 31.356L91.0771 32.22C91.5011 32.332 91.9771 32.484 92.5051 32.676C93.0331 32.868 93.5411 33.136 94.0291 33.48C94.5171 33.824 94.9171 34.276 95.2291 34.836C95.5491 35.396 95.7091 36.108 95.7091 36.972C95.7091 37.868 95.5211 38.656 95.1451 39.336C94.7771 40.008 94.2771 40.568 93.6451 41.016C93.0131 41.464 92.2891 41.8 91.4731 42.024C90.6651 42.248 89.8171 42.36 88.9291 42.36ZM105.433 42C104.577 42.16 103.737 42.228 102.913 42.204C102.097 42.188 101.365 42.04 100.717 41.76C100.069 41.472 99.5766 41.02 99.2406 40.404C98.9446 39.844 98.7886 39.272 98.7726 38.688C98.7566 38.104 98.7486 37.444 98.7486 36.708V25.44H101.629V36.54C101.629 37.06 101.633 37.516 101.641 37.908C101.657 38.3 101.741 38.62 101.893 38.868C102.181 39.348 102.641 39.616 103.273 39.672C103.905 39.728 104.625 39.696 105.433 39.576V42ZM96.3966 31.308V29.04H105.433V31.308H96.3966ZM115.084 42V27.876L111.844 29.856V26.664L115.084 24.72H118.036V42H115.084ZM127.717 24.384C128.845 24.384 129.857 24.652 130.753 25.188C131.657 25.716 132.373 26.452 132.901 27.396C133.429 28.34 133.693 29.424 133.693 30.648V35.904C133.693 37.216 133.429 38.356 132.901 39.324C132.381 40.292 131.645 41.04 130.693 41.568C129.749 42.096 128.649 42.36 127.393 42.36C126.521 42.36 125.693 42.216 124.909 41.928C124.125 41.632 123.429 41.164 122.821 40.524L124.909 38.496C125.213 38.856 125.581 39.14 126.013 39.348C126.453 39.556 126.913 39.66 127.393 39.66C128.065 39.66 128.653 39.504 129.157 39.192C129.661 38.872 130.049 38.456 130.321 37.944C130.601 37.432 130.741 36.884 130.741 36.3V33.432L131.269 34.008C130.773 34.584 130.177 35.036 129.481 35.364C128.785 35.684 128.057 35.844 127.297 35.844C126.209 35.844 125.249 35.6 124.417 35.112C123.585 34.616 122.929 33.944 122.449 33.096C121.969 32.24 121.729 31.268 121.729 30.18C121.729 29.1 122.001 28.124 122.545 27.252C123.097 26.372 123.825 25.676 124.729 25.164C125.633 24.644 126.629 24.384 127.717 24.384ZM127.717 27.156C127.157 27.156 126.645 27.292 126.181 27.564C125.717 27.828 125.345 28.192 125.065 28.656C124.793 29.112 124.657 29.62 124.657 30.18C124.657 30.74 124.793 31.252 125.065 31.716C125.337 32.18 125.701 32.552 126.157 32.832C126.621 33.104 127.133 33.24 127.693 33.24C128.253 33.24 128.765 33.104 129.229 32.832C129.693 32.552 130.061 32.18 130.333 31.716C130.605 31.252 130.741 30.74 130.741 30.18C130.741 29.636 130.605 29.136 130.333 28.68C130.069 28.216 129.705 27.848 129.241 27.576C128.785 27.296 128.277 27.156 127.717 27.156ZM142.226 42.36C141.082 42.36 140.066 42.128 139.178 41.664C138.29 41.2 137.594 40.556 137.09 39.732C136.586 38.908 136.334 37.964 136.334 36.9C136.334 35.948 136.554 35.064 136.994 34.248C137.434 33.432 138.078 32.78 138.926 32.292L138.866 33.216C138.202 32.712 137.686 32.132 137.318 31.476C136.958 30.812 136.778 30.068 136.778 29.244C136.778 28.252 137.01 27.392 137.474 26.664C137.946 25.936 138.59 25.372 139.406 24.972C140.222 24.564 141.162 24.36 142.226 24.36C143.29 24.36 144.23 24.564 145.046 24.972C145.87 25.372 146.514 25.936 146.978 26.664C147.45 27.392 147.686 28.252 147.686 29.244C147.686 30.068 147.51 30.808 147.158 31.464C146.814 32.12 146.29 32.712 145.586 33.24L145.574 32.304C146.406 32.776 147.042 33.424 147.482 34.248C147.93 35.064 148.154 35.948 148.154 36.9C148.154 37.964 147.898 38.908 147.386 39.732C146.882 40.556 146.182 41.2 145.286 41.664C144.398 42.128 143.378 42.36 142.226 42.36ZM142.226 39.636C143.074 39.636 143.762 39.404 144.29 38.94C144.826 38.476 145.094 37.796 145.094 36.9C145.094 36.004 144.83 35.324 144.302 34.86C143.774 34.388 143.082 34.152 142.226 34.152C141.378 34.152 140.694 34.388 140.174 34.86C139.654 35.324 139.394 36.004 139.394 36.9C139.394 37.796 139.654 38.476 140.174 38.94C140.694 39.404 141.378 39.636 142.226 39.636ZM142.226 31.404C142.938 31.404 143.514 31.228 143.954 30.876C144.402 30.516 144.626 29.972 144.626 29.244C144.626 28.516 144.402 27.976 143.954 27.624C143.514 27.264 142.938 27.084 142.226 27.084C141.522 27.084 140.946 27.264 140.498 27.624C140.058 27.976 139.838 28.516 139.838 29.244C139.838 29.972 140.058 30.516 140.498 30.876C140.946 31.228 141.522 31.404 142.226 31.404ZM151.675 42L157.627 27.456H150.079V24.72H160.723V27.456L154.795 42H151.675ZM164.086 40.44V37.476H167.05V40.44H164.086ZM164.11 33.564V30.6H167.074V33.564H164.11ZM170.402 41.976V39.456L177.794 32.868C178.37 32.356 178.77 31.872 178.994 31.416C179.218 30.96 179.33 30.52 179.33 30.096C179.33 29.52 179.206 29.008 178.958 28.56C178.711 28.104 178.367 27.744 177.927 27.48C177.494 27.216 176.994 27.084 176.427 27.084C175.826 27.084 175.294 27.224 174.83 27.504C174.374 27.776 174.018 28.14 173.762 28.596C173.506 29.052 173.386 29.544 173.402 30.072H170.426C170.426 28.92 170.682 27.916 171.194 27.06C171.714 26.204 172.426 25.54 173.33 25.068C174.242 24.596 175.294 24.36 176.487 24.36C177.591 24.36 178.582 24.608 179.462 25.104C180.342 25.592 181.034 26.272 181.538 27.144C182.043 28.008 182.295 29.004 182.295 30.132C182.295 30.956 182.183 31.648 181.959 32.208C181.735 32.768 181.399 33.284 180.95 33.756C180.51 34.228 179.962 34.752 179.307 35.328L174.062 39.972L173.798 39.252H182.295V41.976H170.402ZM190.925 42.36C189.701 42.36 188.621 42.1 187.685 41.58C186.749 41.052 186.017 40.32 185.489 39.384C184.969 38.448 184.709 37.368 184.709 36.144V30.576C184.709 29.352 184.969 28.272 185.489 27.336C186.017 26.4 186.749 25.672 187.685 25.152C188.621 24.624 189.701 24.36 190.925 24.36C192.149 24.36 193.225 24.624 194.153 25.152C195.089 25.672 195.821 26.4 196.349 27.336C196.877 28.272 197.141 29.352 197.141 30.576V36.144C197.141 37.368 196.877 38.448 196.349 39.384C195.821 40.32 195.089 41.052 194.153 41.58C193.225 42.1 192.149 42.36 190.925 42.36ZM190.925 39.612C191.533 39.612 192.085 39.468 192.581 39.18C193.077 38.884 193.469 38.492 193.757 38.004C194.045 37.508 194.189 36.956 194.189 36.348V30.36C194.189 29.744 194.045 29.192 193.757 28.704C193.469 28.208 193.077 27.816 192.581 27.528C192.085 27.232 191.533 27.084 190.925 27.084C190.317 27.084 189.765 27.232 189.269 27.528C188.773 27.816 188.381 28.208 188.093 28.704C187.805 29.192 187.661 29.744 187.661 30.36V36.348C187.661 36.956 187.805 37.508 188.093 38.004C188.381 38.492 188.773 38.884 189.269 39.18C189.765 39.468 190.317 39.612 190.925 39.612ZM203.036 42V27.876L199.796 29.856V26.664L203.036 24.72H205.988V42H203.036ZM215.742 42.36C214.598 42.36 213.582 42.128 212.694 41.664C211.806 41.2 211.11 40.556 210.606 39.732C210.102 38.908 209.85 37.964 209.85 36.9C209.85 35.948 210.07 35.064 210.51 34.248C210.95 33.432 211.594 32.78 212.442 32.292L212.382 33.216C211.718 32.712 211.202 32.132 210.834 31.476C210.474 30.812 210.294 30.068 210.294 29.244C210.294 28.252 210.526 27.392 210.99 26.664C211.462 25.936 212.106 25.372 212.922 24.972C213.738 24.564 214.678 24.36 215.742 24.36C216.806 24.36 217.746 24.564 218.562 24.972C219.386 25.372 220.03 25.936 220.494 26.664C220.966 27.392 221.202 28.252 221.202 29.244C221.202 30.068 221.026 30.808 220.674 31.464C220.33 32.12 219.806 32.712 219.102 33.24L219.09 32.304C219.922 32.776 220.558 33.424 220.998 34.248C221.446 35.064 221.67 35.948 221.67 36.9C221.67 37.964 221.414 38.908 220.902 39.732C220.398 40.556 219.698 41.2 218.802 41.664C217.914 42.128 216.894 42.36 215.742 42.36ZM215.742 39.636C216.59 39.636 217.278 39.404 217.806 38.94C218.342 38.476 218.61 37.796 218.61 36.9C218.61 36.004 218.346 35.324 217.818 34.86C217.29 34.388 216.598 34.152 215.742 34.152C214.894 34.152 214.21 34.388 213.69 34.86C213.17 35.324 212.91 36.004 212.91 36.9C212.91 37.796 213.17 38.476 213.69 38.94C214.21 39.404 214.894 39.636 215.742 39.636ZM215.742 31.404C216.454 31.404 217.03 31.228 217.47 30.876C217.918 30.516 218.142 29.972 218.142 29.244C218.142 28.516 217.918 27.976 217.47 27.624C217.03 27.264 216.454 27.084 215.742 27.084C215.038 27.084 214.462 27.264 214.014 27.624C213.574 27.976 213.354 28.516 213.354 29.244C213.354 29.972 213.574 30.516 214.014 30.876C214.462 31.228 215.038 31.404 215.742 31.404Z" fill="#631AC0"/>
<path d="M25.76 71C25.6427 71 25.552 70.9627 25.488 70.888C25.424 70.8133 25.392 70.7227 25.392 70.616V60.184C25.392 60.0667 25.424 59.976 25.488 59.912C25.5627 59.8373 25.6533 59.8 25.76 59.8H26.592C26.6987 59.8 26.784 59.8373 26.848 59.912C26.9227 59.976 26.96 60.0667 26.96 60.184V68.456L32.928 60.024C32.96 59.9813 33.0027 59.9333 33.056 59.88C33.12 59.8267 33.2107 59.8 33.328 59.8H34.112C34.2187 59.8 34.304 59.8373 34.368 59.912C34.4427 59.976 34.48 60.0667 34.48 60.184V70.632C34.48 70.7387 34.4427 70.8293 34.368 70.904C34.304 70.968 34.2187 71 34.112 71H33.296C33.1893 71 33.0987 70.968 33.024 70.904C32.9493 70.8293 32.912 70.7387 32.912 70.632V62.424L26.96 70.776C26.9387 70.808 26.896 70.856 26.832 70.92C26.768 70.9733 26.6773 71 26.56 71H25.76ZM37.247 71C37.1403 71 37.0497 70.968 36.975 70.904C36.911 70.8293 36.879 70.7387 36.879 70.632V63.048C36.879 62.9413 36.911 62.856 36.975 62.792C37.0497 62.7173 37.1403 62.68 37.247 62.68H38.015C38.1217 62.68 38.207 62.7173 38.271 62.792C38.335 62.856 38.367 62.9413 38.367 63.048V66.12H42.735V63.048C42.735 62.9413 42.767 62.856 42.831 62.792C42.9057 62.7173 42.9963 62.68 43.103 62.68H43.855C43.9617 62.68 44.047 62.7173 44.111 62.792C44.1857 62.856 44.223 62.9413 44.223 63.048V70.632C44.223 70.7387 44.1857 70.8293 44.111 70.904C44.047 70.968 43.9617 71 43.855 71H43.103C42.9963 71 42.9057 70.968 42.831 70.904C42.767 70.8293 42.735 70.7387 42.735 70.632V67.4H38.367V70.632C38.367 70.7387 38.335 70.8293 38.271 70.904C38.207 70.968 38.1217 71 38.015 71H37.247ZM50.625 74.04C50.5183 74.04 50.4277 74.0027 50.353 73.928C50.289 73.864 50.257 73.7787 50.257 73.672V71C49.3183 71 48.545 70.8453 47.937 70.536C47.3397 70.2267 46.8917 69.8 46.593 69.256C46.305 68.712 46.1397 68.0933 46.097 67.4C46.0757 67.0267 46.0757 66.6533 46.097 66.28C46.1397 65.576 46.3103 64.9573 46.609 64.424C46.9077 63.88 47.3557 63.4533 47.953 63.144C48.561 62.8347 49.329 62.68 50.257 62.68V60.008C50.257 59.9013 50.289 59.816 50.353 59.752C50.4277 59.6773 50.5183 59.64 50.625 59.64H51.377C51.4837 59.64 51.569 59.6773 51.633 59.752C51.7077 59.816 51.745 59.9013 51.745 60.008V62.68C52.673 62.68 53.4357 62.8347 54.033 63.144C54.641 63.4533 55.0943 63.88 55.393 64.424C55.7023 64.9573 55.873 65.576 55.905 66.28C55.9263 66.6533 55.9263 67.0267 55.905 67.4C55.873 68.0933 55.7077 68.712 55.409 69.256C55.1103 69.8 54.6623 70.2267 54.065 70.536C53.4677 70.8453 52.6943 71 51.745 71V73.672C51.745 73.7787 51.7077 73.864 51.633 73.928C51.569 74.0027 51.4837 74.04 51.377 74.04H50.625ZM50.257 69.768V63.912C49.393 63.912 48.7423 64.12 48.305 64.536C47.8677 64.952 47.6277 65.5707 47.585 66.392C47.5743 66.552 47.569 66.7067 47.569 66.856C47.569 66.9947 47.5743 67.1387 47.585 67.288C47.6383 68.1093 47.8783 68.728 48.305 69.144C48.7423 69.56 49.393 69.768 50.257 69.768ZM51.745 69.768C52.6197 69.768 53.2703 69.56 53.697 69.144C54.1343 68.7173 54.3743 68.0987 54.417 67.288C54.4277 67.1387 54.433 66.9947 54.433 66.856C54.433 66.7067 54.4277 66.552 54.417 66.392C54.385 65.5707 54.145 64.952 53.697 64.536C53.2597 64.12 52.609 63.912 51.745 63.912V69.768ZM61.1457 71.16C60.3351 71.16 59.6577 71.0053 59.1137 70.696C58.5697 70.3867 58.1537 69.96 57.8657 69.416C57.5777 68.8613 57.4177 68.232 57.3857 67.528C57.3751 67.3467 57.3697 67.1173 57.3697 66.84C57.3697 66.552 57.3751 66.3227 57.3857 66.152C57.4177 65.4373 57.5777 64.808 57.8657 64.264C58.1644 63.72 58.5857 63.2933 59.1297 62.984C59.6737 62.6747 60.3457 62.52 61.1457 62.52C61.9457 62.52 62.6177 62.6747 63.1617 62.984C63.7057 63.2933 64.1217 63.72 64.4097 64.264C64.7084 64.808 64.8737 65.4373 64.9057 66.152C64.9164 66.3227 64.9217 66.552 64.9217 66.84C64.9217 67.1173 64.9164 67.3467 64.9057 67.528C64.8737 68.232 64.7137 68.8613 64.4257 69.416C64.1377 69.96 63.7217 70.3867 63.1777 70.696C62.6337 71.0053 61.9564 71.16 61.1457 71.16ZM61.1457 69.928C61.8071 69.928 62.3351 69.72 62.7297 69.304C63.1244 68.8773 63.3377 68.2587 63.3697 67.448C63.3804 67.288 63.3857 67.0853 63.3857 66.84C63.3857 66.5947 63.3804 66.392 63.3697 66.232C63.3377 65.4213 63.1244 64.808 62.7297 64.392C62.3351 63.9653 61.8071 63.752 61.1457 63.752C60.4844 63.752 59.9511 63.9653 59.5457 64.392C59.1511 64.808 58.9431 65.4213 58.9217 66.232C58.9111 66.392 58.9057 66.5947 58.9057 66.84C58.9057 67.0853 58.9111 67.288 58.9217 67.448C58.9431 68.2587 59.1511 68.8773 59.5457 69.304C59.9511 69.72 60.4844 69.928 61.1457 69.928ZM67.1292 74.04C67.0226 74.04 66.9319 74.0027 66.8572 73.928C66.7932 73.864 66.7612 73.7787 66.7612 73.672V63.048C66.7612 62.9413 66.7932 62.856 66.8572 62.792C66.9319 62.7173 67.0226 62.68 67.1292 62.68H67.8652C67.9719 62.68 68.0572 62.7173 68.1212 62.792C68.1959 62.856 68.2332 62.9413 68.2332 63.048V63.752C68.4892 63.4 68.8306 63.1067 69.2572 62.872C69.6839 62.6373 70.2172 62.52 70.8572 62.52C71.4546 62.52 71.9612 62.6213 72.3772 62.824C72.8039 63.0267 73.1506 63.304 73.4172 63.656C73.6946 64.008 73.9026 64.408 74.0412 64.856C74.1799 65.304 74.2546 65.784 74.2652 66.296C74.2759 66.4667 74.2812 66.648 74.2812 66.84C74.2812 67.032 74.2759 67.2133 74.2652 67.384C74.2546 67.8853 74.1799 68.3653 74.0412 68.824C73.9026 69.272 73.6946 69.672 73.4172 70.024C73.1506 70.3653 72.8039 70.6427 72.3772 70.856C71.9612 71.0587 71.4546 71.16 70.8572 71.16C70.2386 71.16 69.7159 71.048 69.2892 70.824C68.8732 70.5893 68.5319 70.3013 68.2652 69.96V73.672C68.2652 73.7787 68.2332 73.864 68.1692 73.928C68.1052 74.0027 68.0146 74.04 67.8972 74.04H67.1292ZM70.5212 69.864C71.0759 69.864 71.5079 69.7467 71.8172 69.512C72.1372 69.2667 72.3666 68.952 72.5052 68.568C72.6439 68.1733 72.7239 67.752 72.7452 67.304C72.7559 66.9947 72.7559 66.6853 72.7452 66.376C72.7239 65.928 72.6439 65.512 72.5052 65.128C72.3666 64.7333 72.1372 64.4187 71.8172 64.184C71.5079 63.9387 71.0759 63.816 70.5212 63.816C69.9986 63.816 69.5719 63.9387 69.2412 64.184C68.9212 64.4293 68.6812 64.744 68.5212 65.128C68.3719 65.5013 68.2866 65.8853 68.2652 66.28C68.2546 66.4507 68.2492 66.6533 68.2492 66.888C68.2492 67.1227 68.2546 67.3307 68.2652 67.512C68.2759 67.8853 68.3612 68.2533 68.5212 68.616C68.6919 68.9787 68.9426 69.2773 69.2732 69.512C69.6039 69.7467 70.0199 69.864 70.5212 69.864ZM76.4485 71C76.3418 71 76.2565 70.968 76.1925 70.904C76.1285 70.84 76.0965 70.7547 76.0965 70.648V62.984C76.0965 62.8987 76.1285 62.8293 76.1925 62.776C76.2672 62.712 76.3418 62.68 76.4165 62.68H77.2325C77.4032 62.68 77.5365 62.7653 77.6325 62.936L80.3525 68.024L83.0885 62.936C83.1845 62.7653 83.3178 62.68 83.4885 62.68H84.2885C84.3738 62.68 84.4485 62.712 84.5125 62.776C84.5765 62.8293 84.6085 62.8987 84.6085 62.984V70.648C84.6085 70.7547 84.5765 70.84 84.5125 70.904C84.4485 70.968 84.3685 71 84.2725 71H83.4885C83.3818 71 83.2965 70.968 83.2325 70.904C83.1685 70.84 83.1365 70.7547 83.1365 70.648V64.264L83.6965 64.328L81.0885 69.256C81.0352 69.3627 80.9712 69.4587 80.8965 69.544C80.8218 69.6293 80.7098 69.672 80.5605 69.672H80.1445C80.0058 69.672 79.8992 69.6293 79.8245 69.544C79.7498 69.4587 79.6805 69.3627 79.6165 69.256L77.0885 64.568L77.5845 64.52V70.648C77.5845 70.7547 77.5525 70.84 77.4885 70.904C77.4245 70.968 77.3392 71 77.2325 71H76.4485ZM89.1427 71.16C88.6094 71.16 88.1241 71.0533 87.6867 70.84C87.2494 70.6267 86.8974 70.3387 86.6307 69.976C86.3641 69.6133 86.2307 69.2027 86.2307 68.744C86.2307 68.008 86.5294 67.4213 87.1267 66.984C87.7241 66.5467 88.5027 66.2587 89.4627 66.12L91.8467 65.784V65.32C91.8467 64.808 91.6974 64.408 91.3987 64.12C91.1107 63.832 90.6361 63.688 89.9747 63.688C89.4947 63.688 89.1054 63.784 88.8067 63.976C88.5187 64.168 88.3161 64.4133 88.1987 64.712C88.1347 64.872 88.0227 64.952 87.8627 64.952H87.1427C87.0254 64.952 86.9347 64.92 86.8707 64.856C86.8174 64.7813 86.7907 64.696 86.7907 64.6C86.7907 64.44 86.8494 64.2427 86.9667 64.008C87.0947 63.7733 87.2867 63.544 87.5427 63.32C87.7987 63.096 88.1241 62.9093 88.5187 62.76C88.9241 62.6 89.4147 62.52 89.9907 62.52C90.6307 62.52 91.1694 62.6053 91.6067 62.776C92.0441 62.936 92.3854 63.1547 92.6307 63.432C92.8867 63.7093 93.0681 64.024 93.1747 64.376C93.2921 64.728 93.3507 65.0853 93.3507 65.448V70.632C93.3507 70.7387 93.3134 70.8293 93.2387 70.904C93.1747 70.968 93.0894 71 92.9827 71H92.2467C92.1294 71 92.0387 70.968 91.9747 70.904C91.9107 70.8293 91.8787 70.7387 91.8787 70.632V69.944C91.7401 70.136 91.5534 70.328 91.3187 70.52C91.0841 70.7013 90.7907 70.856 90.4387 70.984C90.0867 71.1013 89.6547 71.16 89.1427 71.16ZM89.4787 69.96C89.9161 69.96 90.3161 69.8693 90.6787 69.688C91.0414 69.496 91.3241 69.2027 91.5267 68.808C91.7401 68.4133 91.8467 67.9173 91.8467 67.32V66.872L89.9907 67.144C89.2334 67.2507 88.6627 67.432 88.2787 67.688C87.8947 67.9333 87.7027 68.248 87.7027 68.632C87.7027 68.9307 87.7881 69.1813 87.9587 69.384C88.1401 69.576 88.3641 69.72 88.6307 69.816C88.9081 69.912 89.1907 69.96 89.4787 69.96ZM102.559 73.016C102.442 73.016 102.351 72.984 102.287 72.92C102.223 72.856 102.191 72.7653 102.191 72.648V71H95.8389C95.7322 71 95.6415 70.968 95.5669 70.904C95.5029 70.8293 95.4709 70.7387 95.4709 70.632V63.048C95.4709 62.9413 95.5029 62.856 95.5669 62.792C95.6415 62.7173 95.7322 62.68 95.8389 62.68H96.6069C96.7135 62.68 96.7989 62.7173 96.8629 62.792C96.9269 62.856 96.9589 62.9413 96.9589 63.048V69.72H101.071V63.048C101.071 62.9413 101.103 62.856 101.167 62.792C101.231 62.7173 101.316 62.68 101.423 62.68H102.191C102.298 62.68 102.383 62.7173 102.447 62.792C102.522 62.856 102.559 62.9413 102.559 63.048L102.543 69.72H103.311C103.418 69.72 103.503 69.7573 103.567 69.832C103.642 69.896 103.679 69.9813 103.679 70.088V72.648C103.679 72.7653 103.642 72.856 103.567 72.92C103.503 72.984 103.418 73.016 103.311 73.016H102.559ZM105.518 71C105.422 71 105.337 70.968 105.262 70.904C105.198 70.8293 105.166 70.7493 105.166 70.664V63.048C105.166 62.9413 105.198 62.856 105.262 62.792C105.337 62.7173 105.427 62.68 105.534 62.68H106.302C106.409 62.68 106.494 62.7173 106.558 62.792C106.622 62.856 106.654 62.9413 106.654 63.048V69.832L106.238 69.4L111.086 62.92C111.139 62.856 111.198 62.8027 111.262 62.76C111.326 62.7067 111.406 62.68 111.502 62.68H112.238C112.323 62.68 112.398 62.712 112.462 62.776C112.537 62.84 112.574 62.9147 112.574 63V70.632C112.574 70.7387 112.537 70.8293 112.462 70.904C112.398 70.968 112.313 71 112.206 71H111.454C111.337 71 111.246 70.968 111.182 70.904C111.118 70.8293 111.086 70.7387 111.086 70.632V64.248L111.534 64.232L106.654 70.76C106.611 70.8133 106.558 70.8667 106.494 70.92C106.43 70.9733 106.345 71 106.238 71H105.518ZM118.144 71.16C117.333 71.16 116.656 71.0053 116.112 70.696C115.568 70.3867 115.152 69.96 114.864 69.416C114.576 68.8613 114.416 68.232 114.384 67.528C114.373 67.3467 114.368 67.1173 114.368 66.84C114.368 66.552 114.373 66.3227 114.384 66.152C114.416 65.4373 114.576 64.808 114.864 64.264C115.163 63.72 115.584 63.2933 116.128 62.984C116.672 62.6747 117.344 62.52 118.144 62.52C118.944 62.52 119.616 62.6747 120.16 62.984C120.704 63.2933 121.12 63.72 121.408 64.264C121.707 64.808 121.872 65.4373 121.904 66.152C121.915 66.3227 121.92 66.552 121.92 66.84C121.92 67.1173 121.915 67.3467 121.904 67.528C121.872 68.232 121.712 68.8613 121.424 69.416C121.136 69.96 120.72 70.3867 120.176 70.696C119.632 71.0053 118.955 71.16 118.144 71.16ZM118.144 69.928C118.805 69.928 119.333 69.72 119.728 69.304C120.123 68.8773 120.336 68.2587 120.368 67.448C120.379 67.288 120.384 67.0853 120.384 66.84C120.384 66.5947 120.379 66.392 120.368 66.232C120.336 65.4213 120.123 64.808 119.728 64.392C119.333 63.9653 118.805 63.752 118.144 63.752C117.483 63.752 116.949 63.9653 116.544 64.392C116.149 64.808 115.941 65.4213 115.92 66.232C115.909 66.392 115.904 66.5947 115.904 66.84C115.904 67.0853 115.909 67.288 115.92 67.448C115.941 68.2587 116.149 68.8773 116.544 69.304C116.949 69.72 117.483 69.928 118.144 69.928ZM124.111 71C124.005 71 123.914 70.968 123.839 70.904C123.775 70.8293 123.743 70.7387 123.743 70.632V63.048C123.743 62.9413 123.775 62.856 123.839 62.792C123.914 62.7173 124.005 62.68 124.111 62.68H124.879C124.986 62.68 125.071 62.7173 125.135 62.792C125.199 62.856 125.231 62.9413 125.231 63.048V66.12H129.599V63.048C129.599 62.9413 129.631 62.856 129.695 62.792C129.77 62.7173 129.861 62.68 129.967 62.68H130.719C130.826 62.68 130.911 62.7173 130.975 62.792C131.05 62.856 131.087 62.9413 131.087 63.048V70.632C131.087 70.7387 131.05 70.8293 130.975 70.904C130.911 70.968 130.826 71 130.719 71H129.967C129.861 71 129.77 70.968 129.695 70.904C129.631 70.8293 129.599 70.7387 129.599 70.632V67.4H125.231V70.632C125.231 70.7387 125.199 70.8293 125.135 70.904C125.071 70.968 124.986 71 124.879 71H124.111ZM133.681 71C133.575 71 133.484 70.968 133.409 70.904C133.345 70.8293 133.313 70.7387 133.313 70.632V63.048C133.313 62.9413 133.345 62.856 133.409 62.792C133.484 62.7173 133.575 62.68 133.681 62.68H134.449C134.556 62.68 134.641 62.7173 134.705 62.792C134.769 62.856 134.801 62.9413 134.801 63.048V66.12H139.169V63.048C139.169 62.9413 139.201 62.856 139.265 62.792C139.34 62.7173 139.431 62.68 139.537 62.68H140.289C140.396 62.68 140.481 62.7173 140.545 62.792C140.62 62.856 140.657 62.9413 140.657 63.048V70.632C140.657 70.7387 140.62 70.8293 140.545 70.904C140.481 70.968 140.396 71 140.289 71H139.537C139.431 71 139.34 70.968 139.265 70.904C139.201 70.8293 139.169 70.7387 139.169 70.632V67.4H134.801V70.632C134.801 70.7387 134.769 70.8293 134.705 70.904C134.641 70.968 134.556 71 134.449 71H133.681ZM145.203 71.16C144.67 71.16 144.185 71.0533 143.747 70.84C143.31 70.6267 142.958 70.3387 142.691 69.976C142.425 69.6133 142.291 69.2027 142.291 68.744C142.291 68.008 142.59 67.4213 143.187 66.984C143.785 66.5467 144.563 66.2587 145.523 66.12L147.907 65.784V65.32C147.907 64.808 147.758 64.408 147.459 64.12C147.171 63.832 146.697 63.688 146.035 63.688C145.555 63.688 145.166 63.784 144.867 63.976C144.579 64.168 144.377 64.4133 144.259 64.712C144.195 64.872 144.083 64.952 143.923 64.952H143.203C143.086 64.952 142.995 64.92 142.931 64.856C142.878 64.7813 142.851 64.696 142.851 64.6C142.851 64.44 142.91 64.2427 143.027 64.008C143.155 63.7733 143.347 63.544 143.603 63.32C143.859 63.096 144.185 62.9093 144.579 62.76C144.985 62.6 145.475 62.52 146.051 62.52C146.691 62.52 147.23 62.6053 147.667 62.776C148.105 62.936 148.446 63.1547 148.691 63.432C148.947 63.7093 149.129 64.024 149.235 64.376C149.353 64.728 149.411 65.0853 149.411 65.448V70.632C149.411 70.7387 149.374 70.8293 149.299 70.904C149.235 70.968 149.15 71 149.043 71H148.307C148.19 71 148.099 70.968 148.035 70.904C147.971 70.8293 147.939 70.7387 147.939 70.632V69.944C147.801 70.136 147.614 70.328 147.379 70.52C147.145 70.7013 146.851 70.856 146.499 70.984C146.147 71.1013 145.715 71.16 145.203 71.16ZM145.539 69.96C145.977 69.96 146.377 69.8693 146.739 69.688C147.102 69.496 147.385 69.2027 147.587 68.808C147.801 68.4133 147.907 67.9173 147.907 67.32V66.872L146.051 67.144C145.294 67.2507 144.723 67.432 144.339 67.688C143.955 67.9333 143.763 68.248 143.763 68.632C143.763 68.9307 143.849 69.1813 144.019 69.384C144.201 69.576 144.425 69.72 144.691 69.816C144.969 69.912 145.251 69.96 145.539 69.96ZM156.716 71C156.598 71 156.508 70.968 156.444 70.904C156.38 70.8293 156.348 70.7387 156.348 70.632V68.024H154.508V67.944C153.505 67.944 152.758 67.6987 152.268 67.208C151.788 66.7067 151.548 66.072 151.548 65.304C151.548 64.408 151.809 63.7467 152.332 63.32C152.865 62.8933 153.665 62.68 154.732 62.68H157.484C157.59 62.68 157.676 62.7173 157.74 62.792C157.814 62.856 157.852 62.9413 157.852 63.048V70.632C157.852 70.7387 157.814 70.8293 157.74 70.904C157.676 70.968 157.59 71 157.484 71H156.716ZM151.644 71C151.548 71 151.468 70.968 151.404 70.904C151.34 70.84 151.308 70.7653 151.308 70.68C151.308 70.6373 151.313 70.5947 151.324 70.552C151.345 70.4987 151.377 70.4453 151.42 70.392L153.324 67.576L154.86 67.688L152.828 70.76C152.785 70.8133 152.726 70.8667 152.652 70.92C152.577 70.9733 152.497 71 152.412 71H151.644ZM154.556 66.824H156.364V63.88H154.684C154.086 63.88 153.644 63.9867 153.356 64.2C153.078 64.4027 152.94 64.7707 152.94 65.304C152.94 65.7413 153.068 66.104 153.324 66.392C153.59 66.68 154.001 66.824 154.556 66.824ZM166.341 71C166.234 71 166.143 70.968 166.069 70.904C166.005 70.8293 165.973 70.7387 165.973 70.632V63.96H163.189C163.082 63.96 162.991 63.928 162.917 63.864C162.853 63.7893 162.821 63.6987 162.821 63.592V63.048C162.821 62.9413 162.853 62.856 162.917 62.792C162.991 62.7173 163.082 62.68 163.189 62.68H170.229C170.335 62.68 170.421 62.7173 170.485 62.792C170.559 62.856 170.597 62.9413 170.597 63.048V63.592C170.597 63.6987 170.559 63.7893 170.485 63.864C170.421 63.928 170.335 63.96 170.229 63.96H167.445V70.632C167.445 70.7387 167.413 70.8293 167.349 70.904C167.285 70.968 167.194 71 167.077 71H166.341ZM175.116 71.16C174.017 71.16 173.143 70.824 172.492 70.152C171.841 69.4693 171.484 68.5413 171.42 67.368C171.409 67.2293 171.404 67.0533 171.404 66.84C171.404 66.616 171.409 66.4347 171.42 66.296C171.463 65.5387 171.639 64.8773 171.948 64.312C172.257 63.736 172.679 63.2933 173.212 62.984C173.756 62.6747 174.391 62.52 175.116 62.52C175.927 62.52 176.604 62.6907 177.148 63.032C177.703 63.3733 178.124 63.8587 178.412 64.488C178.7 65.1173 178.844 65.8533 178.844 66.696V66.968C178.844 67.0853 178.807 67.176 178.732 67.24C178.668 67.304 178.583 67.336 178.476 67.336H172.94C172.94 67.3467 172.94 67.368 172.94 67.4C172.94 67.432 172.94 67.4587 172.94 67.48C172.961 67.9173 173.057 68.328 173.228 68.712C173.399 69.0853 173.644 69.3893 173.964 69.624C174.284 69.8587 174.668 69.976 175.116 69.976C175.5 69.976 175.82 69.9173 176.076 69.8C176.332 69.6827 176.54 69.5547 176.7 69.416C176.86 69.2667 176.967 69.1547 177.02 69.08C177.116 68.9413 177.191 68.8613 177.244 68.84C177.297 68.808 177.383 68.792 177.5 68.792H178.268C178.375 68.792 178.46 68.824 178.524 68.888C178.599 68.9413 178.631 69.0213 178.62 69.128C178.609 69.288 178.524 69.4853 178.364 69.72C178.204 69.944 177.975 70.168 177.676 70.392C177.377 70.616 177.015 70.8027 176.588 70.952C176.161 71.0907 175.671 71.16 175.116 71.16ZM172.94 66.232H177.324V66.184C177.324 65.704 177.233 65.2773 177.052 64.904C176.881 64.5307 176.631 64.2373 176.3 64.024C175.969 63.8 175.575 63.688 175.116 63.688C174.657 63.688 174.263 63.8 173.932 64.024C173.612 64.2373 173.367 64.5307 173.196 64.904C173.025 65.2773 172.94 65.704 172.94 66.184V66.232ZM180.193 71C180.108 71 180.028 70.968 179.953 70.904C179.889 70.84 179.857 70.76 179.857 70.664C179.857 70.632 179.862 70.5947 179.873 70.552C179.894 70.4987 179.926 70.44 179.969 70.376L182.753 66.744L180.145 63.304C180.102 63.24 180.07 63.1867 180.049 63.144C180.038 63.1013 180.033 63.0587 180.033 63.016C180.033 62.92 180.065 62.84 180.129 62.776C180.193 62.712 180.273 62.68 180.369 62.68H181.185C181.302 62.68 181.388 62.712 181.441 62.776C181.505 62.8293 181.558 62.8827 181.601 62.936L183.729 65.704L185.857 62.952C185.9 62.8987 185.948 62.84 186.001 62.776C186.065 62.712 186.156 62.68 186.273 62.68H187.057C187.153 62.68 187.233 62.712 187.297 62.776C187.361 62.84 187.393 62.92 187.393 63.016C187.393 63.0587 187.382 63.1013 187.361 63.144C187.35 63.1867 187.324 63.24 187.281 63.304L184.641 66.776L187.425 70.376C187.468 70.44 187.494 70.4933 187.505 70.536C187.526 70.5787 187.537 70.6213 187.537 70.664C187.537 70.76 187.505 70.84 187.441 70.904C187.377 70.968 187.297 71 187.201 71H186.353C186.246 71 186.161 70.9733 186.097 70.92C186.033 70.8667 185.98 70.8133 185.937 70.76L183.681 67.832L181.425 70.76C181.382 70.8027 181.329 70.856 181.265 70.92C181.212 70.9733 181.126 71 181.009 71H180.193ZM189.39 71C189.283 71 189.193 70.968 189.118 70.904C189.054 70.8293 189.022 70.7387 189.022 70.632V63.048C189.022 62.9413 189.054 62.856 189.118 62.792C189.193 62.7173 189.283 62.68 189.39 62.68H190.158C190.265 62.68 190.35 62.7173 190.414 62.792C190.478 62.856 190.51 62.9413 190.51 63.048V66.12H194.878V63.048C194.878 62.9413 194.91 62.856 194.974 62.792C195.049 62.7173 195.139 62.68 195.246 62.68H195.998C196.105 62.68 196.19 62.7173 196.254 62.792C196.329 62.856 196.366 62.9413 196.366 63.048V70.632C196.366 70.7387 196.329 70.8293 196.254 70.904C196.19 70.968 196.105 71 195.998 71H195.246C195.139 71 195.049 70.968 194.974 70.904C194.91 70.8293 194.878 70.7387 194.878 70.632V67.4H190.51V70.632C190.51 70.7387 190.478 70.8293 190.414 70.904C190.35 70.968 190.265 71 190.158 71H189.39ZM202 71.16C201.189 71.16 200.512 71.0053 199.968 70.696C199.424 70.3867 199.008 69.96 198.72 69.416C198.432 68.8613 198.272 68.232 198.24 67.528C198.229 67.3467 198.224 67.1173 198.224 66.84C198.224 66.552 198.229 66.3227 198.24 66.152C198.272 65.4373 198.432 64.808 198.72 64.264C199.019 63.72 199.44 63.2933 199.984 62.984C200.528 62.6747 201.2 62.52 202 62.52C202.8 62.52 203.472 62.6747 204.016 62.984C204.56 63.2933 204.976 63.72 205.264 64.264C205.563 64.808 205.728 65.4373 205.76 66.152C205.771 66.3227 205.776 66.552 205.776 66.84C205.776 67.1173 205.771 67.3467 205.76 67.528C205.728 68.232 205.568 68.8613 205.28 69.416C204.992 69.96 204.576 70.3867 204.032 70.696C203.488 71.0053 202.811 71.16 202 71.16ZM202 69.928C202.661 69.928 203.189 69.72 203.584 69.304C203.979 68.8773 204.192 68.2587 204.224 67.448C204.235 67.288 204.24 67.0853 204.24 66.84C204.24 66.5947 204.235 66.392 204.224 66.232C204.192 65.4213 203.979 64.808 203.584 64.392C203.189 63.9653 202.661 63.752 202 63.752C201.339 63.752 200.805 63.9653 200.4 64.392C200.005 64.808 199.797 65.4213 199.776 66.232C199.765 66.392 199.76 66.5947 199.76 66.84C199.76 67.0853 199.765 67.288 199.776 67.448C199.797 68.2587 200.005 68.8773 200.4 69.304C200.805 69.72 201.339 69.928 202 69.928ZM207.2 71C207.093 71 207.002 70.9627 206.928 70.888C206.853 70.8133 206.816 70.7227 206.816 70.616V70.024C206.816 69.8 206.928 69.6827 207.152 69.672C207.482 69.6613 207.76 69.5067 207.984 69.208C208.208 68.8987 208.378 68.4133 208.496 67.752C208.613 67.08 208.672 66.1947 208.672 65.096V63.048C208.672 62.9413 208.704 62.856 208.768 62.792C208.842 62.7173 208.933 62.68 209.04 62.68H214.128C214.234 62.68 214.32 62.7173 214.384 62.792C214.458 62.856 214.496 62.9413 214.496 63.048V70.632C214.496 70.7387 214.458 70.8293 214.384 70.904C214.32 70.968 214.234 71 214.128 71H213.36C213.253 71 213.168 70.968 213.104 70.904C213.04 70.8293 213.008 70.7387 213.008 70.632V63.96H210.128V65.272C210.128 66.296 210.069 67.176 209.952 67.912C209.834 68.6373 209.653 69.2293 209.408 69.688C209.173 70.136 208.869 70.4667 208.496 70.68C208.133 70.8933 207.701 71 207.2 71ZM220.109 71.16C219.298 71.16 218.621 71.0053 218.077 70.696C217.533 70.3867 217.117 69.96 216.829 69.416C216.541 68.8613 216.381 68.232 216.349 67.528C216.338 67.3467 216.333 67.1173 216.333 66.84C216.333 66.552 216.338 66.3227 216.349 66.152C216.381 65.4373 216.541 64.808 216.829 64.264C217.128 63.72 217.549 63.2933 218.093 62.984C218.637 62.6747 219.309 62.52 220.109 62.52C220.909 62.52 221.581 62.6747 222.125 62.984C222.669 63.2933 223.085 63.72 223.373 64.264C223.672 64.808 223.837 65.4373 223.869 66.152C223.88 66.3227 223.885 66.552 223.885 66.84C223.885 67.1173 223.88 67.3467 223.869 67.528C223.837 68.232 223.677 68.8613 223.389 69.416C223.101 69.96 222.685 70.3867 222.141 70.696C221.597 71.0053 220.92 71.16 220.109 71.16ZM220.109 69.928C220.77 69.928 221.298 69.72 221.693 69.304C222.088 68.8773 222.301 68.2587 222.333 67.448C222.344 67.288 222.349 67.0853 222.349 66.84C222.349 66.5947 222.344 66.392 222.333 66.232C222.301 65.4213 222.088 64.808 221.693 64.392C221.298 63.9653 220.77 63.752 220.109 63.752C219.448 63.752 218.914 63.9653 218.509 64.392C218.114 64.808 217.906 65.4213 217.885 66.232C217.874 66.392 217.869 66.5947 217.869 66.84C217.869 67.0853 217.874 67.288 217.885 67.448C217.906 68.2587 218.114 68.8773 218.509 69.304C218.914 69.72 219.448 69.928 220.109 69.928ZM226.076 71C225.97 71 225.879 70.968 225.804 70.904C225.74 70.8293 225.708 70.7387 225.708 70.632V63.048C225.708 62.9413 225.74 62.856 225.804 62.792C225.879 62.7173 225.97 62.68 226.076 62.68H230.86C230.967 62.68 231.052 62.7173 231.116 62.792C231.18 62.856 231.212 62.9413 231.212 63.048V63.592C231.212 63.6987 231.18 63.7893 231.116 63.864C231.052 63.928 230.967 63.96 230.86 63.96H227.196V70.632C227.196 70.7387 227.164 70.8293 227.1 70.904C227.036 70.968 226.951 71 226.844 71H226.076ZM232.755 71C232.659 71 232.574 70.968 232.499 70.904C232.435 70.8293 232.403 70.7493 232.403 70.664V63.048C232.403 62.9413 232.435 62.856 232.499 62.792C232.574 62.7173 232.665 62.68 232.771 62.68H233.539C233.646 62.68 233.731 62.7173 233.795 62.792C233.859 62.856 233.891 62.9413 233.891 63.048V69.832L233.475 69.4L238.323 62.92C238.377 62.856 238.435 62.8027 238.499 62.76C238.563 62.7067 238.643 62.68 238.739 62.68H239.475C239.561 62.68 239.635 62.712 239.699 62.776C239.774 62.84 239.811 62.9147 239.811 63V70.632C239.811 70.7387 239.774 70.8293 239.699 70.904C239.635 70.968 239.55 71 239.443 71H238.691C238.574 71 238.483 70.968 238.419 70.904C238.355 70.8293 238.323 70.7387 238.323 70.632V64.248L238.771 64.232L233.891 70.76C233.849 70.8133 233.795 70.8667 233.731 70.92C233.667 70.9733 233.582 71 233.475 71H232.755ZM247.157 71C247.04 71 246.949 70.968 246.885 70.904C246.821 70.8293 246.789 70.7387 246.789 70.632V68.024H244.949V67.944C243.947 67.944 243.2 67.6987 242.709 67.208C242.229 66.7067 241.989 66.072 241.989 65.304C241.989 64.408 242.251 63.7467 242.773 63.32C243.307 62.8933 244.107 62.68 245.173 62.68H247.925C248.032 62.68 248.117 62.7173 248.181 62.792C248.256 62.856 248.293 62.9413 248.293 63.048V70.632C248.293 70.7387 248.256 70.8293 248.181 70.904C248.117 70.968 248.032 71 247.925 71H247.157ZM242.085 71C241.989 71 241.909 70.968 241.845 70.904C241.781 70.84 241.749 70.7653 241.749 70.68C241.749 70.6373 241.755 70.5947 241.765 70.552C241.787 70.4987 241.819 70.4453 241.861 70.392L243.765 67.576L245.301 67.688L243.269 70.76C243.227 70.8133 243.168 70.8667 243.093 70.92C243.019 70.9733 242.939 71 242.853 71H242.085ZM244.997 66.824H246.805V63.88H245.125C244.528 63.88 244.085 63.9867 243.797 64.2C243.52 64.4027 243.381 64.7707 243.381 65.304C243.381 65.7413 243.509 66.104 243.765 66.392C244.032 66.68 244.443 66.824 244.997 66.824Z" fill="#222222" fill-opacity="0.8"/>
<rect x="352" y="27" width="40" height="40" rx="8" fill="#631AC0"/>
<path d="M379 50V52C379 53.1046 378.105 54 377 54H367C365.895 54 365 53.1046 365 52V50M372 40V50M372 50L370 48M372 50L374 48" stroke="white" stroke-width="2" stroke-linecap="round" stroke-linejoin="round"/>
</svg>
